<svg xmlns="http://www.w3.org/2000/svg" viewBox="-10.02 128.77 560.09 289.36">
<path d="M296.09 280.59 C296.07 277.23 295.14 264.56 297.26 263.11 C301.51 260.17 308.12 264.41 309.91 267.24 C312.45 271.27 312.02 278.30 309.60 282.05 C307.00 286.07 302.08 287.39 296.11 286.51 Z Z M282.67 261.24 C282.80 261.34 283.00 261.43 283.11 261.48 C285.41 262.60 286.80 262.46 287.72 264.14 C288.90 266.33 288.26 297.27 288.30 302.06 C288.39 312.28 285.84 308.71 282.49 310.85 C283.75 311.53 300.60 311.53 301.88 310.85 C299.29 309.12 296.08 311.26 296.08 304.80 L296.28 288.04 C302.55 287.74 312.64 308.68 316.90 310.86 C318.13 311.49 328.57 311.51 329.86 310.85 C329.02 310.18 327.37 309.65 326.19 308.79 C323.78 307.05 315.13 296.41 312.78 293.57 C311.02 291.43 308.69 289.02 307.78 287.19 C310.13 285.98 312.27 285.82 314.56 284.27 C321.60 279.49 322.11 270.19 316.99 265.15 C311.23 259.48 292.71 260.87 282.67 261.24 M443.43 310.85 C438.11 307.54 438.72 313.22 438.70 293.79 C438.69 287.40 438.62 279.87 445.84 279.13 C454.87 278.21 452.97 294.93 452.91 304.83 C452.88 311.27 451.10 308.69 448.10 310.85 C449.80 311.75 462.18 311.60 463.92 310.85 C463.79 310.78 463.61 310.72 463.52 310.68 C463.43 310.65 463.23 310.56 463.12 310.52 C462.98 310.47 462.47 310.28 462.31 310.22 C461.61 309.95 461.56 310.10 460.79 309.55 C455.32 305.69 467.03 277.70 448.47 277.74 C440.61 277.76 439.91 281.51 437.23 283.01 C432.90 275.77 423.51 275.54 417.71 283.80 L416.82 277.95 L406.93 281.14 C407.70 281.70 409.74 282.25 411.51 283.37 C411.99 288.60 411.72 294.53 411.72 299.85 C411.72 301.75 411.93 306.37 411.43 307.95 C410.57 310.70 408.99 309.50 406.95 310.85 C408.15 311.54 421.74 311.49 422.96 310.85 C419.81 308.90 418.21 311.21 418.13 304.83 C418.01 295.43 416.52 280.73 425.50 279.73 C432.77 278.93 432.34 288.88 432.34 294.35 C432.32 312.87 432.97 307.64 427.66 310.85 C429.00 311.52 441.95 311.56 443.43 310.85 M390.94 296.00 C390.94 299.14 391.12 302.88 390.94 305.95 C390.69 310.00 388.68 309.36 386.29 310.85 C387.80 311.50 400.67 311.57 402.14 310.85 C400.18 309.58 398.11 310.19 397.52 307.38 C396.63 303.21 398.71 289.88 396.37 283.73 C393.03 274.91 380.09 276.54 374.91 283.03 L374.81 260.05 L363.88 262.43 L364.55 262.83 C366.44 263.75 367.62 263.45 368.30 265.51 C368.97 267.54 368.58 297.17 368.59 301.50 C368.60 312.47 367.57 308.52 363.90 310.85 C365.53 311.71 378.14 311.63 379.69 310.85 C378.26 310.00 378.27 311.07 375.73 308.18 C374.01 306.21 374.85 290.19 375.23 287.76 C375.94 283.12 380.73 278.11 386.72 280.09 C391.52 281.68 390.94 290.12 390.94 296.00 M210.43 270.96 C211.51 274.71 216.68 286.93 216.71 289.70 L202.82 289.68 C202.86 288.74 208.62 272.39 210.43 270.96 Z M187.93 310.85 C189.43 311.65 199.82 311.63 201.28 310.85 C200.07 309.81 199.14 310.10 197.22 309.07 C196.15 305.17 200.67 294.88 201.99 291.12 L217.38 290.98 C218.86 293.21 223.38 305.49 222.85 308.65 C220.56 310.81 220.37 309.61 218.58 310.85 C219.93 311.51 236.16 311.58 237.55 310.85 C232.91 307.84 233.52 312.21 229.10 300.79 C227.23 295.98 225.63 292.09 223.89 287.26 L214.35 262.16 C213.40 260.35 214.54 261.53 212.98 260.56 C210.36 261.92 208.10 270.84 207.10 273.60 C205.57 277.82 195.48 305.20 194.02 307.31 C191.82 310.49 190.29 309.17 187.93 310.85 M518.42 310.24 C518.29 310.19 518.14 310.15 518.01 310.10 C515.56 309.10 515.46 308.76 515.45 304.27 C515.42 294.00 513.58 280.96 523.87 279.85 C531.47 279.03 531.07 287.81 531.09 294.35 C531.09 297.92 531.23 301.85 531.08 305.39 C530.83 311.25 529.05 308.88 526.23 310.85 C527.92 311.75 540.33 311.62 542.07 310.85 L541.26 310.51 C539.19 309.72 537.98 309.91 537.53 307.01 C536.75 301.92 538.62 289.07 536.59 283.87 C533.00 274.61 521.05 276.63 515.60 283.29 L514.97 282.15 C514.92 282.02 514.87 281.87 514.82 281.73 L513.94 277.97 L504.24 281.14 C509.78 285.12 508.97 276.71 508.99 299.85 C508.99 312.68 508.64 307.88 504.26 310.85 C505.89 311.73 518.41 311.60 520.01 310.85 Z M489.23 305.45 C486.82 306.79 484.45 308.94 480.95 308.70 C477.68 308.48 475.91 305.70 476.33 302.05 C476.95 296.71 484.28 293.08 489.31 291.89 Z Z M475.61 281.24 C478.83 278.65 491.58 275.34 489.00 289.94 C483.05 293.98 470.46 295.92 469.58 303.22 C468.96 308.48 472.28 311.63 477.11 311.88 C483.33 312.20 485.34 309.75 489.19 307.62 C490.87 309.53 491.53 311.99 495.23 311.89 C498.21 311.82 500.15 309.84 501.01 307.24 C500.84 307.32 500.66 307.43 500.53 307.49 L497.03 308.43 C492.30 302.19 500.75 283.78 490.74 279.03 C486.47 277.01 479.24 277.60 475.03 279.11 C468.25 281.53 469.08 288.76 475.40 286.94 Z M239.72 262.78 C241.35 264.35 243.33 263.83 244.11 265.94 C244.63 267.36 244.77 306.67 244.02 308.36 C243.55 309.43 243.24 309.51 242.34 309.94 L240.30 310.69 C240.23 310.57 240.02 310.78 239.90 310.85 C241.50 311.60 253.97 311.75 255.69 310.85 C253.88 309.70 253.51 310.62 250.90 308.60 L250.81 260.71 Z M337.01 290.23 C337.15 286.68 338.68 283.07 341.18 281.16 C349.91 274.48 357.35 289.96 350.59 290.36 C347.21 290.56 340.36 290.53 337.01 290.23 Z M357.99 306.17 C354.76 306.96 349.39 314.20 341.62 308.76 C336.79 305.37 336.06 298.85 336.56 291.89 C339.69 291.03 355.12 291.52 359.44 291.57 C361.41 275.63 333.35 272.50 329.48 291.94 C327.65 301.14 332.17 308.06 338.31 310.93 C346.67 314.84 356.55 310.63 357.99 306.17 M394.27 353.77 C394.27 342.10 405.61 337.86 407.95 348.13 C408.87 352.21 408.45 358.45 408.46 363.12 C408.46 365.45 408.83 368.57 408.14 370.61 C407.29 373.12 405.34 372.31 403.60 373.58 C404.92 374.26 418.29 374.25 419.64 373.58 C417.35 372.03 415.54 373.34 414.94 369.72 C414.53 367.22 414.27 349.09 416.23 345.74 C418.29 342.20 424.62 339.53 427.39 344.57 C429.53 348.45 428.94 355.15 428.94 359.82 C428.94 371.78 429.96 371.52 425.07 373.25 L424.29 373.58 C425.94 374.41 438.24 374.43 440.12 373.58 C438.15 372.36 436.10 372.87 435.55 370.08 C433.81 361.12 441.01 340.24 424.26 340.48 C417.82 340.58 417.12 342.47 413.81 345.84 C410.88 342.79 410.07 340.29 403.90 340.48 C401.58 340.55 399.38 341.24 397.86 342.21 C396.76 342.90 396.51 343.30 395.81 344.01 C394.99 344.84 394.82 345.05 393.75 345.77 L392.90 340.62 L383.11 343.86 C384.73 344.84 385.78 344.04 387.09 345.80 C388.49 347.67 387.87 362.48 387.87 365.32 C387.87 374.68 386.62 371.25 383.17 373.58 C384.85 374.43 397.35 374.34 398.92 373.58 L396.52 372.66 C392.84 371.06 394.26 361.14 394.27 353.77 M314.07 363.67 C309.63 338.28 330.88 336.87 331.30 352.64 C331.50 360.15 332.25 369.13 326.97 372.58 C319.68 377.35 315.09 369.54 314.07 363.67 Z M323.57 341.13 C303.62 339.58 301.63 366.50 314.70 373.66 C323.86 378.68 330.00 371.46 331.83 370.59 L332.85 372.53 C333.17 373.32 333.00 373.29 333.52 374.47 L342.60 372.48 C342.02 369.98 340.31 372.02 338.57 369.61 C336.54 366.81 337.58 327.00 337.55 322.70 L326.43 325.16 C326.59 325.24 326.82 325.53 326.93 325.59 C328.69 326.63 329.52 325.92 330.58 327.51 C331.79 329.35 331.38 342.67 331.15 344.82 C328.78 343.59 327.32 341.42 323.57 341.13 M202.83 352.36 C202.99 348.87 208.92 337.61 209.96 333.15 C211.15 335.28 216.72 350.62 216.69 352.43 Z Z M196.99 371.46 C196.44 367.39 200.54 357.84 202.00 353.69 L217.73 353.97 C219.31 357.92 223.27 367.28 222.98 371.59 C220.54 373.08 219.38 373.00 218.58 373.58 C219.88 374.22 236.00 374.31 237.50 373.58 C234.90 371.76 233.82 373.43 231.70 369.73 C228.39 363.96 215.52 324.43 212.98 323.13 C210.90 323.89 210.38 327.53 209.66 329.52 L196.73 363.90 C192.36 375.36 191.74 370.69 187.90 373.58 C189.45 374.37 199.90 374.34 201.26 373.58 C200.26 372.87 198.72 372.65 196.99 371.46 M291.01 354.41 C291.25 357.39 291.96 366.50 290.39 368.44 C288.51 370.77 282.11 372.93 279.44 369.79 C273.02 362.23 286.15 355.84 291.01 354.41 Z M277.38 343.93 C283.16 340.41 290.96 340.04 291.18 349.39 C291.28 353.84 289.31 353.63 285.48 355.33 C281.32 357.18 273.26 359.74 271.73 364.63 C269.74 371.04 275.10 376.36 283.51 374.14 C287.13 373.19 288.44 371.49 291.11 370.30 C292.75 372.49 293.52 374.73 297.12 374.56 C300.23 374.41 301.91 372.51 302.87 369.98 C300.17 371.21 298.12 372.54 297.62 368.11 C296.81 360.96 299.52 348.65 295.43 343.96 C292.53 340.64 287.20 339.94 281.28 340.69 C276.65 341.27 270.94 343.14 272.68 349.10 C278.16 351.55 277.34 348.24 277.38 343.93 M355.07 353.01 C354.64 342.34 367.23 338.40 370.29 347.29 C372.81 354.61 369.74 353.07 355.07 353.01 Z M375.79 368.78 C372.33 370.38 370.71 373.78 364.27 373.18 C356.92 372.49 354.51 365.57 354.30 359.28 C354.17 355.31 353.59 354.34 357.06 354.21 L377.45 354.19 C378.27 337.31 351.37 336.14 347.43 354.49 C345.61 363.00 349.52 370.69 355.99 373.59 C364.97 377.61 374.96 373.08 375.79 368.78 M440.25 341.79 C441.26 342.74 440.23 341.94 441.69 342.94 C445.22 345.37 446.02 349.21 448.14 354.13 C457.58 375.93 457.70 370.99 452.34 382.94 C451.16 385.57 450.58 387.50 448.36 388.86 C447.02 389.68 441.24 392.56 445.76 394.02 C449.54 395.24 453.04 385.08 454.31 382.17 L469.63 346.86 C471.93 342.38 473.37 343.37 474.25 341.75 L464.76 341.69 C465.80 343.40 465.30 342.17 467.81 343.74 C468.22 347.51 463.03 358.99 460.84 363.40 C459.88 365.32 460.88 364.25 459.48 365.14 C457.35 360.00 451.26 347.59 451.88 343.43 L455.33 342.21 C453.92 341.26 442.83 341.59 440.25 341.79 M265.51 369.44 C263.71 369.65 263.67 370.53 262.10 371.53 C261.05 372.19 259.59 372.76 258.05 373.03 C242.71 375.71 241.94 351.73 249.53 344.65 C251.38 342.92 256.33 341.30 258.75 343.16 C260.60 344.59 258.70 345.80 260.10 347.91 C261.10 349.42 263.05 349.17 264.01 348.16 C266.44 345.59 263.40 342.58 260.78 341.72 C238.20 334.33 228.29 369.80 249.64 374.79 C255.88 376.25 263.48 373.77 265.51 369.44 M88.46 326.18 C89.92 326.51 92.88 328.86 94.72 329.76 C100.27 332.48 96.52 330.88 102.45 332.02 C109.64 333.41 112.94 333.86 119.32 331.64 C129.26 328.18 145.61 329.61 154.24 333.04 C170.19 339.38 177.89 353.13 177.17 369.66 C176.92 375.47 174.78 377.20 169.88 381.54 C166.91 384.17 160.87 387.50 157.18 388.67 C140.82 393.85 123.12 389.10 109.31 380.76 C101.99 376.33 94.60 367.66 91.05 359.32 C87.45 350.86 84.48 332.95 88.46 326.18 Z M168.40 262.49 C174.45 260.83 174.19 262.39 178.09 257.35 C180.72 253.94 181.90 252.47 183.71 248.06 C186.37 241.60 185.07 228.24 185.07 220.14 C185.07 200.80 185.72 180.33 184.99 161.13 C182.86 162.37 181.35 165.88 179.75 168.53 C177.61 172.08 177.22 173.26 177.25 178.21 C177.40 198.02 178.10 235.41 177.18 252.06 C165.94 254.49 162.15 245.39 159.62 241.85 C157.63 242.44 152.90 250.63 152.20 252.47 C147.86 263.99 167.13 274.87 165.74 290.37 C157.58 296.52 139.90 295.45 128.03 298.88 C111.38 303.68 114.93 311.35 104.45 321.61 C100.77 321.10 96.48 317.99 93.85 316.30 C95.42 310.37 116.28 297.84 121.30 294.91 C126.06 292.13 132.08 288.12 135.62 284.92 C138.30 282.50 144.23 274.37 144.11 269.89 C134.47 266.44 107.73 254.29 99.23 259.06 C97.00 260.31 92.33 267.63 91.96 270.33 C94.13 272.72 96.08 273.46 98.16 276.08 C99.00 277.14 102.30 282.35 102.80 282.79 C110.47 271.45 107.50 274.17 105.93 268.50 C111.12 269.05 128.35 275.36 133.51 278.06 C133.01 279.24 115.44 289.55 110.51 293.48 C106.54 296.65 103.79 299.29 100.55 302.85 C96.26 307.57 93.88 312.57 91.57 313.57 C89.60 308.94 88.03 305.52 90.47 299.90 C91.95 296.49 96.71 291.96 94.27 288.82 C91.84 285.68 85.93 285.02 81.80 285.69 C72.43 287.21 68.50 292.70 63.94 300.95 C62.25 304.02 59.83 308.95 58.65 312.29 C55.33 321.67 55.11 329.39 49.05 335.74 C44.08 340.95 32.48 345.06 23.89 341.43 C9.87 335.52 3.95 322.36 10.30 310.25 C11.93 307.14 15.12 303.08 17.13 300.53 C19.45 297.56 22.00 294.47 24.47 291.30 C30.22 283.91 29.33 285.22 34.48 285.10 L34.13 278.32 C24.15 278.25 28.41 278.97 27.65 285.33 C27.50 286.58 19.60 296.01 18.33 297.83 C16.50 300.45 14.14 304.10 11.86 306.29 C10.16 307.93 9.98 308.22 8.76 310.35 C5.26 316.45 -2.02 325.90 0.53 337.95 C3.37 351.40 20.13 362.39 37.00 352.38 C43.44 348.56 46.43 343.96 50.83 336.97 C68.26 309.24 60.77 300.67 71.70 299.75 C71.47 303.90 69.52 307.78 72.99 311.16 C77.35 315.42 80.93 312.10 83.96 310.64 C84.08 313.42 83.36 314.74 83.90 317.77 C84.38 320.42 85.21 320.76 85.87 322.62 C86.67 324.89 83.58 329.93 82.67 332.40 C77.51 346.36 79.91 347.38 78.75 355.87 C78.38 358.61 75.01 362.25 73.31 364.40 L61.71 380.39 C57.71 386.04 58.04 385.31 52.49 385.28 L52.43 392.27 L59.17 392.11 C59.65 380.18 57.30 388.37 67.32 373.88 L78.53 358.41 C79.61 359.76 80.40 364.18 81.04 366.52 C85.72 383.53 99.84 396.06 117.28 401.49 C145.02 410.13 164.52 399.02 177.64 375.50 C178.97 373.12 180.02 371.53 181.18 369.13 C189.14 352.54 184.39 334.35 171.98 325.83 C167.42 322.70 165.19 320.66 158.25 319.06 C148.20 316.75 132.26 319.77 122.79 322.85 C118.52 324.23 108.66 324.90 105.69 322.19 C106.30 320.91 108.02 319.19 109.30 317.67 C113.39 312.82 119.80 311.36 126.44 310.05 C134.93 308.38 147.04 308.13 154.65 305.01 C164.63 300.91 174.44 282.68 173.17 274.45 C172.33 269.02 169.87 266.65 168.40 262.49" fill="#248dce" fill-rule="evenodd"></path>
<path d="M191.32 163.87 L191.31 257.86 C193.13 257.34 199.35 248.21 199.33 242.20 L199.30 146.76 C197.17 147.51 195.65 151.19 193.90 154.05 C191.30 158.30 191.31 158.19 191.32 163.87" fill="#248dce" fill-rule="evenodd"></path>
<path d="M120.88 246.16 L147.41 222.27 C151.80 218.73 159.79 211.22 161.33 205.21 C159.38 206.12 152.07 213.21 150.68 214.51 L134.66 228.83 C130.21 232.71 122.34 239.68 120.88 246.16 M31.80 318.91 C33.28 316.69 35.09 314.45 35.87 311.71 C34.24 309.67 31.98 307.47 29.98 305.70 C28.36 306.62 25.98 310.33 25.43 312.81 C26.34 314.22 30.07 318.26 31.80 318.91 M60.04 260.97 C59.15 265.62 55.94 268.93 51.53 270.88 C48.17 272.36 48.59 271.30 47.53 274.37 C50.99 273.62 54.38 271.57 56.10 269.57 C57.84 268.29 59.25 266.68 60.53 265.04 C62.19 262.93 61.62 263.78 62.02 261.60 C62.13 257.56 63.12 257.10 60.20 254.62 C55.07 249.66 51.55 247.20 46.86 253.65 C45.24 256.09 44.02 259.04 46.27 261.82 C47.60 264.83 50.94 262.80 52.81 262.24 L52.34 262.00 L53.49 262.20 L53.58 259.78 C52.18 260.82 48.49 262.13 48.43 259.80 C44.03 247.84 59.31 252.54 60.04 260.97 M142.64 242.72 L147.95 242.44 C148.40 241.39 149.01 240.33 149.50 239.30 C150.32 240.40 150.39 240.34 151.26 241.38 L154.44 240.76 L155.71 239.42 C157.51 236.88 158.51 228.72 153.97 230.51 C152.81 234.71 153.77 231.17 155.10 234.57 C155.05 235.84 156.21 238.36 154.94 238.39 L151.91 238.45 C150.21 235.94 150.78 234.57 148.26 234.95 C148.09 238.27 149.19 240.46 145.18 240.63 C143.11 239.49 143.13 239.64 142.76 236.85 L141.96 236.00 C141.23 238.91 141.68 239.90 142.64 242.72" fill="#248dce" fill-rule="evenodd"></path>
<path d="M100.02 239.85 C101.28 238.59 111.52 238.16 110.53 231.24 C109.87 226.56 103.62 224.97 101.98 230.98 L101.95 233.41 L102.19 233.53 C103.67 233.74 105.26 233.45 106.07 233.36 L106.29 231.72 C99.77 231.79 105.11 225.47 108.60 231.59 C108.67 234.10 108.62 233.95 107.35 236.18 C104.65 236.36 100.79 237.15 98.65 238.91 C97.91 239.26 97.67 239.32 97.14 239.84 C97.08 241.73 98.69 240.52 100.02 239.85" fill="#248dce" fill-rule="evenodd"></path>
<path d="M77.93 275.68 L78.57 277.19 L79.72 275.54 C79.94 274.91 79.47 275.46 80.16 274.43 C81.13 272.99 80.62 273.75 81.48 273.00 C80.48 266.96 81.29 251.08 81.29 243.87 C81.29 238.99 81.32 234.11 81.30 229.23 L81.34 218.17 C81.20 215.79 81.77 216.29 80.49 215.64 C79.78 216.71 80.12 216.23 79.42 217.06 C79.34 217.16 79.10 217.54 79.03 217.43 C78.97 217.33 78.76 217.66 78.63 217.78 C77.53 222.47 78.24 239.95 78.25 246.31 C78.25 253.62 79.08 269.39 77.93 275.68" fill="#258dcd" fill-rule="evenodd"></path>
<path d="M138.71 221.92 L137.54 220.21 Z" fill="#248dce" fill-rule="evenodd"></path>
<path d="M165.97 167.67 L185.98 149.64 C189.29 146.97 195.32 141.31 196.49 136.77 C195.01 137.46 189.50 142.81 188.45 143.79 L176.36 154.60 C173.00 157.52 167.07 162.78 165.97 167.67" fill="#248dce" fill-rule="evenodd"></path>
</svg>