<svg xmlns="http://www.w3.org/2000/svg" viewBox="19.43 130.77 185.92 194.14">
<path d="M191.32 163.87 L191.31 257.86 C193.13 257.34 199.35 248.21 199.33 242.20 L199.30 146.76 C197.17 147.51 195.65 151.19 193.90 154.05 C191.30 158.30 191.31 158.19 191.32 163.87" fill="#ffffff" fill-rule="evenodd"></path>
<path d="M120.88 246.16 L147.41 222.27 C151.80 218.73 159.79 211.22 161.33 205.21 C159.38 206.12 152.07 213.21 150.68 214.51 L134.66 228.83 C130.21 232.71 122.34 239.68 120.88 246.16 M31.80 318.91 C33.28 316.69 35.09 314.45 35.87 311.71 C34.24 309.67 31.98 307.47 29.98 305.70 C28.36 306.62 25.98 310.33 25.43 312.81 C26.34 314.22 30.07 318.26 31.80 318.91 M60.04 260.97 C59.15 265.62 55.94 268.93 51.53 270.88 C48.17 272.36 48.59 271.30 47.53 274.37 C50.99 273.62 54.38 271.57 56.10 269.57 C57.84 268.29 59.25 266.68 60.53 265.04 C62.19 262.93 61.62 263.78 62.02 261.60 C62.13 257.56 63.12 257.10 60.20 254.62 C55.07 249.66 51.55 247.20 46.86 253.65 C45.24 256.09 44.02 259.04 46.27 261.82 C47.60 264.83 50.94 262.80 52.81 262.24 L52.34 262.00 L53.49 262.20 L53.58 259.78 C52.18 260.82 48.49 262.13 48.43 259.80 C44.03 247.84 59.31 252.54 60.04 260.97 M142.64 242.72 L147.95 242.44 C148.40 241.39 149.01 240.33 149.50 239.30 C150.32 240.40 150.39 240.34 151.26 241.38 L154.44 240.76 L155.71 239.42 C157.51 236.88 158.51 228.72 153.97 230.51 C152.81 234.71 153.77 231.17 155.10 234.57 C155.05 235.84 156.21 238.36 154.94 238.39 L151.91 238.45 C150.21 235.94 150.78 234.57 148.26 234.95 C148.09 238.27 149.19 240.46 145.18 240.63 C143.11 239.49 143.13 239.64 142.76 236.85 L141.96 236.00 C141.23 238.91 141.68 239.90 142.64 242.72" fill="#ffffff" fill-rule="evenodd"></path>
<path d="M100.02 239.85 C101.28 238.59 111.52 238.16 110.53 231.24 C109.87 226.56 103.62 224.97 101.98 230.98 L101.95 233.41 L102.19 233.53 C103.67 233.74 105.26 233.45 106.07 233.36 L106.29 231.72 C99.77 231.79 105.11 225.47 108.60 231.59 C108.67 234.10 108.62 233.95 107.35 236.18 C104.65 236.36 100.79 237.15 98.65 238.91 C97.91 239.26 97.67 239.32 97.14 239.84 C97.08 241.73 98.69 240.52 100.02 239.85" fill="#ffffff" fill-rule="evenodd"></path>
<path d="M77.93 275.68 L78.57 277.19 L79.72 275.54 C79.94 274.91 79.47 275.46 80.16 274.43 C81.13 272.99 80.62 273.75 81.48 273.00 C80.48 266.96 81.29 251.08 81.29 243.87 C81.29 238.99 81.32 234.11 81.30 229.23 L81.34 218.17 C81.20 215.79 81.77 216.29 80.49 215.64 C79.78 216.71 80.12 216.23 79.42 217.06 C79.34 217.16 79.10 217.54 79.03 217.43 C78.97 217.33 78.76 217.66 78.63 217.78 C77.53 222.47 78.24 239.95 78.25 246.31 C78.25 253.62 79.08 269.39 77.93 275.68" fill="#ffffff" fill-rule="evenodd"></path>
<path d="M138.71 221.92 L137.54 220.21 Z" fill="#ffffff" fill-rule="evenodd"></path>
<path d="M165.97 167.67 L185.98 149.64 C189.29 146.97 195.32 141.31 196.49 136.77 C195.01 137.46 189.50 142.81 188.45 143.79 L176.36 154.60 C173.00 157.52 167.07 162.78 165.97 167.67" fill="#ffffff" fill-rule="evenodd"></path>
</svg>