<svg xmlns="http://www.w3.org/2000/svg" viewBox="1016.09 -6.00 664.34 385.49">
<path d="M1132.25 321.62 C1132.23 318.26 1131.30 305.60 1133.42 304.14 C1137.67 301.21 1144.28 305.44 1146.07 308.27 C1148.61 312.30 1148.18 319.33 1145.76 323.08 C1143.16 327.10 1138.24 328.42 1132.27 327.55 Z Z M1118.83 302.27 C1118.96 302.37 1119.16 302.46 1119.27 302.52 C1121.57 303.63 1122.96 303.49 1123.88 305.17 C1125.06 307.36 1124.42 338.31 1124.46 343.09 C1124.55 353.31 1122.00 349.75 1118.65 351.88 C1119.91 352.56 1136.76 352.57 1138.04 351.88 C1135.45 350.16 1132.24 352.29 1132.24 345.83 L1132.44 329.07 C1138.71 328.77 1148.80 349.71 1153.06 351.89 C1154.29 352.53 1164.73 352.54 1166.02 351.88 C1165.18 351.21 1163.53 350.68 1162.35 349.83 C1159.94 348.08 1151.29 337.44 1148.94 334.60 C1147.18 332.46 1144.85 330.05 1143.94 328.22 C1146.29 327.01 1148.43 326.85 1150.72 325.30 C1157.76 320.53 1158.27 311.22 1153.15 306.18 C1147.39 300.51 1128.87 301.90 1118.83 302.27 M1279.59 351.88 C1274.27 348.57 1274.88 354.25 1274.86 334.83 C1274.86 328.43 1274.78 320.90 1282.00 320.16 C1291.03 319.24 1289.13 335.96 1289.07 345.86 C1289.04 352.30 1287.27 349.72 1284.26 351.88 C1285.96 352.78 1298.34 352.63 1300.08 351.88 C1299.95 351.81 1299.77 351.75 1299.68 351.72 C1299.59 351.68 1299.39 351.60 1299.28 351.55 C1299.14 351.50 1298.63 351.32 1298.47 351.25 C1297.77 350.98 1297.72 351.13 1296.95 350.58 C1291.48 346.72 1303.19 318.73 1284.63 318.78 C1276.77 318.79 1276.07 322.54 1273.39 324.04 C1269.06 316.80 1259.67 316.57 1253.87 324.83 L1252.98 318.98 L1243.09 322.17 C1243.86 322.73 1245.90 323.28 1247.67 324.40 C1248.15 329.63 1247.88 335.56 1247.88 340.88 C1247.88 342.78 1248.09 347.40 1247.59 348.98 C1246.73 351.73 1245.15 350.53 1243.11 351.88 C1244.31 352.57 1257.90 352.52 1259.12 351.88 C1255.97 349.93 1254.37 352.24 1254.29 345.86 C1254.17 336.46 1252.68 321.76 1261.66 320.76 C1268.93 319.96 1268.50 329.91 1268.50 335.38 C1268.48 353.90 1269.13 348.67 1263.82 351.88 C1265.16 352.55 1278.11 352.59 1279.59 351.88 M1227.10 337.03 C1227.10 340.17 1227.28 343.91 1227.10 346.98 C1226.85 351.03 1224.84 350.39 1222.45 351.88 C1223.96 352.53 1236.84 352.60 1238.30 351.88 C1236.34 350.61 1234.27 351.22 1233.68 348.41 C1232.79 344.24 1234.87 330.91 1232.53 324.76 C1229.19 315.94 1216.25 317.57 1211.07 324.06 L1210.97 301.09 L1200.04 303.46 L1200.71 303.87 C1202.60 304.79 1203.78 304.48 1204.46 306.54 C1205.13 308.57 1204.74 338.21 1204.75 342.53 C1204.76 353.50 1203.73 349.55 1200.06 351.88 C1201.69 352.74 1214.30 352.66 1215.85 351.88 C1214.42 351.03 1214.43 352.11 1211.89 349.21 C1210.17 347.24 1211.01 331.22 1211.39 328.79 C1212.10 324.15 1216.89 319.14 1222.88 321.12 C1227.68 322.71 1227.10 331.15 1227.10 337.03 M1046.59 311.99 C1047.67 315.74 1052.84 327.96 1052.87 330.73 L1038.98 330.71 C1039.02 329.77 1044.78 313.42 1046.59 311.99 Z M1024.09 351.88 C1025.59 352.68 1035.98 352.66 1037.44 351.88 C1036.23 350.84 1035.30 351.13 1033.38 350.10 C1032.31 346.20 1036.83 335.91 1038.15 332.16 L1053.54 332.02 C1055.02 334.24 1059.54 346.52 1059.01 349.68 C1056.72 351.84 1056.53 350.64 1054.74 351.88 C1056.09 352.54 1072.32 352.61 1073.71 351.88 C1069.07 348.88 1069.68 353.25 1065.26 341.82 C1063.39 337.01 1061.79 333.12 1060.05 328.29 L1050.51 303.20 C1049.56 301.38 1050.71 302.56 1049.14 301.59 C1046.52 302.95 1044.26 311.87 1043.26 314.63 C1041.73 318.85 1031.64 346.24 1030.18 348.34 C1027.98 351.52 1026.45 350.21 1024.09 351.88 M1354.58 351.27 C1354.45 351.22 1354.30 351.18 1354.17 351.13 C1351.72 350.14 1351.62 349.79 1351.61 345.30 C1351.58 335.03 1349.74 321.99 1360.03 320.88 C1367.63 320.06 1367.23 328.84 1367.25 335.38 C1367.25 338.96 1367.39 342.88 1367.24 346.42 C1366.99 352.29 1365.21 349.91 1362.39 351.88 C1364.08 352.78 1376.49 352.65 1378.23 351.88 L1377.42 351.54 C1375.35 350.75 1374.14 350.94 1373.69 348.04 C1372.91 342.95 1374.78 330.10 1372.75 324.90 C1369.16 315.64 1357.21 317.66 1351.76 324.32 L1351.13 323.18 C1351.08 323.05 1351.03 322.90 1350.98 322.76 L1350.10 319.01 L1340.40 322.17 C1345.94 326.15 1345.13 317.74 1345.15 340.88 C1345.15 353.71 1344.80 348.91 1340.42 351.88 C1342.05 352.76 1354.57 352.63 1356.17 351.88 Z M1325.39 346.49 C1322.98 347.82 1320.61 349.97 1317.11 349.73 C1313.84 349.52 1312.07 346.73 1312.49 343.09 C1313.11 337.74 1320.44 334.11 1325.47 332.92 Z Z M1311.77 322.27 C1314.99 319.68 1327.74 316.37 1325.16 330.98 C1319.21 335.01 1306.62 336.95 1305.74 344.25 C1305.12 349.51 1308.44 352.66 1313.27 352.91 C1319.49 353.23 1321.50 350.78 1325.35 348.65 C1327.03 350.56 1327.69 353.02 1331.39 352.93 C1334.37 352.85 1336.31 350.88 1337.17 348.28 C1337.00 348.35 1336.82 348.46 1336.69 348.52 L1333.19 349.46 C1328.46 343.22 1336.91 324.81 1326.90 320.06 C1322.63 318.04 1315.40 318.63 1311.19 320.14 C1304.41 322.57 1305.24 329.80 1311.56 327.97 Z M1075.88 303.81 C1077.51 305.38 1079.49 304.86 1080.27 306.98 C1080.79 308.39 1080.93 347.70 1080.18 349.39 C1079.71 350.46 1079.40 350.54 1078.50 350.97 L1076.46 351.72 C1076.39 351.60 1076.18 351.81 1076.06 351.88 C1077.66 352.63 1090.13 352.79 1091.85 351.88 C1090.04 350.73 1089.67 351.65 1087.06 349.63 L1086.97 301.74 Z M1173.17 331.26 C1173.31 327.71 1174.84 324.10 1177.34 322.19 C1186.07 315.51 1193.51 331.00 1186.75 331.39 C1183.37 331.59 1176.52 331.56 1173.17 331.26 Z M1194.15 347.20 C1190.92 347.99 1185.55 355.23 1177.78 349.79 C1172.95 346.41 1172.22 339.89 1172.72 332.92 C1175.85 332.06 1191.28 332.55 1195.60 332.60 C1197.57 316.66 1169.51 313.53 1165.64 332.97 C1163.81 342.17 1168.33 349.10 1174.48 351.97 C1182.83 355.87 1192.71 351.66 1194.15 347.20 M1592.45 330.02 C1592.46 318.35 1603.80 314.11 1606.13 324.38 C1607.06 328.46 1606.64 334.70 1606.64 339.37 C1606.65 341.70 1607.01 344.82 1606.33 346.85 C1605.48 349.37 1603.53 348.56 1601.78 349.82 C1603.10 350.51 1616.48 350.50 1617.82 349.82 C1615.54 348.28 1613.73 349.59 1613.13 345.97 C1612.72 343.47 1612.45 325.34 1614.42 321.98 C1616.48 318.45 1622.80 315.78 1625.58 320.82 C1627.72 324.70 1627.12 331.40 1627.12 336.07 C1627.12 348.02 1628.14 347.77 1623.26 349.49 L1622.47 349.82 C1624.12 350.66 1636.43 350.68 1638.30 349.82 C1636.34 348.60 1634.28 349.12 1633.74 346.33 C1632.00 337.37 1639.20 316.49 1622.44 316.73 C1616.01 316.82 1615.31 318.72 1612.00 322.08 C1609.07 319.04 1608.25 316.54 1602.09 316.73 C1599.76 316.80 1597.57 317.49 1596.05 318.45 C1594.95 319.14 1594.69 319.55 1594.00 320.25 C1593.18 321.09 1593.00 321.30 1591.93 322.02 L1591.09 316.87 L1581.30 320.11 C1582.92 321.09 1583.96 320.29 1585.28 322.05 C1586.68 323.92 1586.06 338.73 1586.06 341.57 C1586.06 350.93 1584.80 347.50 1581.35 349.82 C1583.04 350.68 1595.53 350.58 1597.11 349.82 L1594.71 348.91 C1591.03 347.31 1592.45 337.39 1592.45 330.02 M1512.25 339.92 C1507.81 314.53 1529.06 313.12 1529.49 328.89 C1529.69 336.40 1530.43 345.38 1525.16 348.83 C1517.86 353.60 1513.28 345.79 1512.25 339.92 Z M1521.76 317.38 C1501.81 315.83 1499.82 342.74 1512.89 349.91 C1522.04 354.93 1528.18 347.71 1530.02 346.83 L1531.03 348.78 C1531.35 349.56 1531.19 349.54 1531.71 350.72 L1540.79 348.72 C1540.20 346.23 1538.49 348.27 1536.76 345.86 C1534.73 343.05 1535.77 303.25 1535.74 298.95 L1524.62 301.41 C1524.78 301.49 1525.01 301.78 1525.12 301.84 C1526.87 302.87 1527.71 302.17 1528.76 303.76 C1529.97 305.60 1529.57 318.92 1529.34 321.07 C1526.97 319.84 1525.51 317.67 1521.76 317.38 M1401.02 328.61 C1401.18 325.12 1407.10 313.86 1408.15 309.40 C1409.34 311.53 1414.91 326.87 1414.88 328.68 Z Z M1395.18 347.71 C1394.62 343.64 1398.72 334.09 1400.18 329.94 L1415.92 330.22 C1417.49 334.17 1421.46 343.53 1421.17 347.84 C1418.73 349.33 1417.57 349.25 1416.76 349.82 C1418.07 350.47 1434.19 350.56 1435.68 349.82 C1433.09 348.01 1432.01 349.68 1429.88 345.98 C1426.57 340.21 1413.71 300.68 1411.17 299.38 C1409.09 300.14 1408.57 303.78 1407.85 305.77 L1394.91 340.15 C1390.55 351.61 1389.93 346.94 1386.09 349.82 C1387.63 350.62 1398.09 350.59 1399.44 349.82 C1398.45 349.12 1396.91 348.90 1395.18 347.71 M1489.19 330.65 C1489.43 333.64 1490.15 342.75 1488.58 344.69 C1486.70 347.02 1480.29 349.18 1477.63 346.04 C1471.20 338.48 1484.34 332.09 1489.19 330.65 Z M1475.57 320.18 C1481.35 316.66 1489.15 316.29 1489.36 325.64 C1489.47 330.09 1487.49 329.87 1483.67 331.58 C1479.51 333.43 1471.44 335.99 1469.92 340.88 C1467.92 347.29 1473.29 352.61 1481.70 350.39 C1485.31 349.44 1486.62 347.74 1489.30 346.55 C1490.94 348.73 1491.71 350.98 1495.30 350.81 C1498.42 350.66 1500.10 348.76 1501.05 346.23 C1498.36 347.46 1496.31 348.79 1495.81 344.36 C1495.00 337.21 1497.71 324.90 1493.62 320.21 C1490.72 316.89 1485.39 316.19 1479.46 316.94 C1474.84 317.52 1469.13 319.39 1470.87 325.35 C1476.35 327.80 1475.53 324.49 1475.57 320.18 M1553.25 329.25 C1552.82 318.59 1565.42 314.65 1568.48 323.54 C1571.00 330.86 1567.93 329.31 1553.25 329.25 Z M1573.98 345.03 C1570.51 346.63 1568.90 350.03 1562.46 349.42 C1555.10 348.74 1552.70 341.82 1552.49 335.52 C1552.35 331.56 1551.77 330.59 1555.24 330.46 L1575.63 330.44 C1576.45 313.56 1549.55 312.39 1545.62 330.74 C1543.79 339.25 1547.70 346.94 1554.18 349.84 C1563.15 353.86 1573.15 349.33 1573.98 345.03 M1638.44 318.04 C1639.44 318.99 1638.42 318.19 1639.87 319.19 C1643.40 321.62 1644.20 325.46 1646.33 330.38 C1655.77 352.17 1655.89 347.24 1650.53 359.19 C1649.35 361.82 1648.76 363.75 1646.55 365.11 C1645.20 365.93 1639.42 368.81 1643.95 370.27 C1647.73 371.49 1651.23 361.33 1652.50 358.42 L1667.81 323.11 C1670.12 318.63 1671.55 319.62 1672.43 318.00 L1662.94 317.94 C1663.99 319.65 1663.49 318.42 1665.99 319.99 C1666.40 323.76 1661.22 335.24 1659.02 339.65 C1658.07 341.56 1659.07 340.49 1657.66 341.39 C1655.54 336.25 1649.44 323.84 1650.07 319.68 L1653.52 318.46 C1652.11 317.51 1641.02 317.84 1638.44 318.04 M1463.69 345.68 C1461.89 345.90 1461.86 346.78 1460.29 347.78 C1459.24 348.44 1457.77 349.01 1456.24 349.28 C1440.90 351.96 1440.12 327.97 1447.72 320.90 C1449.57 319.17 1454.52 317.55 1456.93 319.41 C1458.78 320.84 1456.89 322.05 1458.29 324.16 C1459.29 325.67 1461.24 325.42 1462.20 324.41 C1464.62 321.84 1461.58 318.83 1458.96 317.97 C1436.38 310.57 1426.48 346.05 1447.83 351.04 C1454.07 352.50 1461.67 350.02 1463.69 345.68 M1336.08 191.40 C1337.54 191.74 1340.50 194.09 1342.34 194.99 C1347.89 197.71 1344.14 196.11 1350.07 197.25 C1357.26 198.63 1360.56 199.08 1366.94 196.87 C1376.88 193.41 1393.23 194.83 1401.86 198.26 C1417.81 204.60 1425.51 218.36 1424.79 234.89 C1424.54 240.70 1422.40 242.42 1417.49 246.76 C1414.53 249.39 1408.49 252.73 1404.80 253.89 C1388.44 259.07 1370.74 254.33 1356.93 245.98 C1349.61 241.56 1342.22 232.89 1338.67 224.55 C1335.07 216.08 1332.09 198.18 1336.08 191.40 Z M1416.02 127.72 C1422.07 126.06 1421.81 127.62 1425.71 122.57 C1428.34 119.16 1429.51 117.69 1431.33 113.29 C1433.99 106.83 1432.69 93.47 1432.69 85.36 C1432.69 66.03 1433.34 45.55 1432.61 26.36 C1430.48 27.60 1428.97 31.11 1427.37 33.76 C1425.23 37.31 1424.83 38.48 1424.87 43.43 C1425.02 63.25 1425.72 100.63 1424.79 117.29 C1413.56 119.72 1409.77 110.62 1407.24 107.07 C1405.25 107.67 1400.52 115.86 1399.82 117.70 C1395.48 129.22 1414.75 140.10 1413.36 155.60 C1405.19 161.75 1387.52 160.68 1375.65 164.10 C1359.00 168.91 1362.55 176.57 1352.07 186.83 C1348.39 186.33 1344.10 183.22 1341.47 181.53 C1343.04 175.59 1363.90 163.06 1368.92 160.14 C1373.68 157.36 1379.70 153.35 1383.24 150.15 C1385.91 147.72 1391.85 139.60 1391.73 135.11 C1382.09 131.67 1355.35 119.51 1346.85 124.29 C1344.62 125.54 1339.95 132.85 1339.58 135.56 C1341.75 137.95 1343.69 138.69 1345.78 141.31 C1346.62 142.36 1349.92 147.58 1350.42 148.01 C1358.09 136.68 1355.12 139.39 1353.55 133.73 C1358.74 134.28 1375.97 140.59 1381.13 143.28 C1380.63 144.47 1363.06 154.78 1358.13 158.71 C1354.16 161.88 1351.41 164.52 1348.17 168.08 C1343.88 172.80 1341.50 177.80 1339.19 178.80 C1337.22 174.16 1335.65 170.74 1338.09 165.13 C1339.57 161.72 1344.33 157.19 1341.89 154.04 C1339.46 150.91 1333.55 150.25 1329.42 150.92 C1320.05 152.43 1316.12 157.93 1311.56 166.18 C1309.87 169.25 1307.45 174.18 1306.27 177.51 C1302.95 186.90 1302.73 194.62 1296.67 200.97 C1291.70 206.17 1280.10 210.28 1271.51 206.66 C1257.49 200.74 1251.56 187.59 1257.92 175.47 C1259.55 172.37 1262.74 168.31 1264.75 165.76 C1267.07 162.79 1269.62 159.70 1272.09 156.53 C1277.84 149.13 1276.95 150.44 1282.10 150.33 L1281.75 143.55 C1271.77 143.48 1276.03 144.20 1275.27 150.55 C1275.12 151.81 1267.22 161.24 1265.95 163.06 C1264.12 165.68 1261.75 169.32 1259.48 171.52 C1257.78 173.16 1257.60 173.45 1256.38 175.58 C1252.88 181.67 1245.60 191.13 1248.15 203.18 C1250.99 216.62 1267.75 227.62 1284.62 217.61 C1291.06 213.79 1294.05 209.19 1298.45 202.19 C1315.88 174.47 1308.39 165.89 1319.32 164.98 C1319.09 169.12 1317.14 173.01 1320.61 176.39 C1324.97 180.64 1328.55 177.32 1331.58 175.87 C1331.70 178.64 1330.98 179.96 1331.52 183.00 C1332.00 185.64 1332.82 185.99 1333.48 187.85 C1334.29 190.12 1331.20 195.16 1330.29 197.63 C1325.13 211.59 1327.53 212.61 1326.37 221.10 C1326.00 223.84 1322.63 227.48 1320.93 229.62 L1309.33 245.62 C1305.33 251.27 1305.66 250.54 1300.10 250.51 L1300.05 257.50 L1306.79 257.34 C1307.27 245.40 1304.92 253.60 1314.94 239.11 L1326.15 223.64 C1327.22 224.99 1328.02 229.40 1328.66 231.75 C1333.33 248.76 1347.46 261.29 1364.90 266.72 C1392.63 275.35 1412.14 264.25 1425.26 240.73 C1426.59 238.35 1427.64 236.76 1428.79 234.35 C1436.75 217.77 1432.01 199.58 1419.60 191.05 C1415.04 187.92 1412.81 185.88 1405.87 184.29 C1395.82 181.97 1379.88 185.00 1370.41 188.07 C1366.14 189.46 1356.28 190.13 1353.31 187.41 C1353.91 186.14 1355.63 184.42 1356.92 182.89 C1361.01 178.05 1367.42 176.59 1374.06 175.28 C1382.55 173.60 1394.66 173.36 1402.26 170.24 C1412.25 166.14 1422.06 147.90 1420.79 139.68 C1419.95 134.25 1417.49 131.88 1416.02 127.72" fill="#248dce" fill-rule="evenodd"></path>
<path d="M1438.94 29.10 L1438.93 123.09 C1440.75 122.57 1446.97 113.44 1446.95 107.43 L1446.92 11.99 C1444.79 12.74 1443.27 16.41 1441.52 19.28 C1438.92 23.52 1438.93 23.42 1438.94 29.10" fill="#248dce" fill-rule="evenodd"></path>
<path d="M1368.50 111.39 L1395.03 87.49 C1399.42 83.96 1407.40 76.45 1408.95 70.44 C1407.00 71.35 1399.68 78.43 1398.30 79.73 L1382.28 94.06 C1377.83 97.94 1369.96 104.90 1368.50 111.39 M1279.42 184.14 C1280.90 181.92 1282.71 179.68 1283.49 176.93 C1281.86 174.90 1279.60 172.70 1277.60 170.92 C1275.98 171.84 1273.60 175.56 1273.05 178.04 C1273.96 179.45 1277.69 183.48 1279.42 184.14 M1307.66 126.19 C1306.77 130.85 1303.56 134.15 1299.15 136.11 C1295.79 137.59 1296.21 136.52 1295.15 139.60 C1298.61 138.84 1302.00 136.80 1303.72 134.80 C1305.46 133.52 1306.86 131.91 1308.15 130.27 C1309.81 128.16 1309.24 129.01 1309.63 126.83 C1309.75 122.78 1310.74 122.32 1307.82 119.84 C1302.69 114.88 1299.17 112.43 1294.48 118.88 C1292.86 121.32 1291.64 124.27 1293.89 127.05 C1295.22 130.06 1298.56 128.02 1300.43 127.47 L1299.96 127.23 L1301.11 127.42 L1301.20 125.01 C1299.80 126.05 1296.11 127.36 1296.05 125.03 C1291.65 113.07 1306.93 117.76 1307.66 126.19 M1390.26 107.95 L1395.57 107.67 C1396.01 106.62 1396.63 105.55 1397.12 104.53 C1397.94 105.63 1398.01 105.57 1398.88 106.61 L1402.06 105.99 L1403.33 104.65 C1405.13 102.10 1406.13 93.95 1401.59 95.74 C1400.43 99.94 1401.39 96.39 1402.72 99.80 C1402.67 101.07 1403.83 103.59 1402.56 103.62 L1399.53 103.68 C1397.83 101.17 1398.40 99.80 1395.88 100.18 C1395.71 103.50 1396.81 105.69 1392.80 105.85 C1390.73 104.72 1390.74 104.87 1390.37 102.08 L1389.58 101.23 C1388.85 104.14 1389.30 105.13 1390.26 107.95" fill="#248dce" fill-rule="evenodd"></path>
<path d="M1347.64 105.08 C1348.90 103.82 1359.14 103.39 1358.15 96.47 C1357.49 91.78 1351.24 90.20 1349.60 96.20 L1349.56 98.64 L1349.80 98.76 C1351.29 98.97 1352.88 98.68 1353.69 98.59 L1353.91 96.95 C1347.38 97.02 1352.72 90.70 1356.22 96.82 C1356.29 99.33 1356.24 99.17 1354.97 101.40 C1352.27 101.58 1348.41 102.38 1346.27 104.14 C1345.53 104.49 1345.29 104.55 1344.76 105.07 C1344.69 106.96 1346.31 105.75 1347.64 105.08" fill="#248dce" fill-rule="evenodd"></path>
<path d="M1325.55 140.91 L1326.19 142.42 L1327.34 140.77 C1327.56 140.14 1327.09 140.68 1327.78 139.66 C1328.75 138.22 1328.24 138.97 1329.10 138.23 C1328.10 132.19 1328.91 116.31 1328.91 109.10 C1328.91 104.22 1328.94 99.34 1328.92 94.46 L1328.96 83.40 C1328.82 81.02 1329.39 81.52 1328.11 80.87 C1327.40 81.93 1327.74 81.46 1327.04 82.29 C1326.96 82.39 1326.72 82.77 1326.65 82.66 C1326.59 82.56 1326.38 82.89 1326.25 83.01 C1325.15 87.70 1325.86 105.18 1325.87 111.54 C1325.87 118.84 1326.70 134.62 1325.55 140.91" fill="#258dcd" fill-rule="evenodd"></path>
<path d="M1386.33 87.15 L1385.16 85.44 Z" fill="#248dce" fill-rule="evenodd"></path>
<path d="M1413.59 32.90 L1433.60 14.87 C1436.91 12.20 1442.94 6.54 1444.10 2.00 C1442.63 2.69 1437.12 8.03 1436.07 9.01 L1423.98 19.82 C1420.62 22.75 1414.69 28.01 1413.59 32.90" fill="#248dce" fill-rule="evenodd"></path>
</svg>